<?xml version="1.0" encoding="UTF-8" standalone="no"?><!DOCTYPE svg PUBLIC "-//W3C//DTD SVG 1.1//EN" "http://www.w3.org/Graphics/SVG/1.1/DTD/svg11.dtd"><svg width="100%" height="100%" viewBox="0 0 5334 4267" version="1.1" xmlns="http://www.w3.org/2000/svg" xmlns:xlink="http://www.w3.org/1999/xlink" xml:space="preserve" xmlns:serif="http://www.serif.com/" style="fill-rule:evenodd;clip-rule:evenodd;stroke-linejoin:round;stroke-miterlimit:2;"><g><path d="M5160.49,3690.53l-4990.47,0c-0,0 -46.542,-519.333 656.429,-475c-0,0 18.221,-766.941 632.529,-627.612c-0,-0 107.662,-316.654 379.983,-120.329c0,-0 620.821,-1231.23 1449.99,-552.059c86.816,71.109 295.833,391.667 154.166,708.334c0,-0 441.667,-179.167 552.084,294.029c172.029,737.258 525.625,177.329 873.958,398.987c348.333,221.654 291.334,373.65 291.334,373.65Z" style="fill:#e4eef7;fill-rule:nonzero;"/><path d="M2353.87,1436.64c-0,-0 186.021,31.867 207.42,250.708c5.109,52.204 7.08,115.875 1.613,209.792l-192.029,-207.25l-17.004,-253.25Z" style="fill:url(#_Linear1);"/><path d="M2387.92,1597.5l-165.338,46.458l-312.758,-1113.05c-0,0 287.579,61.1 386.95,475.813c34.821,145.329 56.216,245.412 91.146,590.783Z" style="fill:url(#_Linear2);"/><path d="M2005.06,1534.66c0,0 -142.196,124.092 -46.479,322.055c22.825,47.216 54.313,102.6 107.892,179.925l55.975,-276.942l-117.388,-225.038Z" style="fill:url(#_Linear3);"/><path d="M2392.18,1731.69l-6.146,-135.25l-165.333,46.458l39.821,141.717l131.658,-52.925Z" style="fill:url(#_Linear4);"/><path d="M2059.78,1689.7l165.337,-46.458l-312.766,-1113.05c-0,0 -213.663,201.942 -82.484,607.721c45.975,142.196 79.838,238.775 229.913,551.787Z" style="fill:url(#_Linear5);"/><path d="M2126.03,1806.47l-65.196,-118.654l165.334,-46.459l39.821,141.713l-139.959,23.4Z" style="fill:url(#_Linear6);"/><path d="M2181.64,988.101c20.391,72.558 -21.905,147.908 -94.467,168.3c-72.558,20.388 -147.908,-21.908 -168.296,-94.466c-20.387,-72.559 21.904,-147.909 94.463,-168.296c72.562,-20.392 147.912,21.9 168.3,94.462Z" style="fill:url(#_Linear7);"/><path d="M2135.88,1000.96c13.288,47.288 -14.275,96.392 -61.562,109.68c-47.284,13.287 -96.392,-14.275 -109.675,-61.563c-13.288,-47.287 14.275,-96.392 61.558,-109.675c47.287,-13.287 96.392,14.271 109.679,61.558Z" style="fill:url(#_Linear8);"/><path d="M2315.96,1964.94c-8.15,2.291 -16.616,-2.459 -18.908,-10.613l-129.417,-460.575c-2.291,-8.154 2.463,-16.617 10.617,-18.908c8.15,-2.292 16.617,2.462 18.908,10.612l129.417,460.575c2.292,8.15 -2.463,16.621 -10.617,18.909Z" style="fill:url(#_Linear9);"/><path d="M2289.2,2560.96l-112.329,-435.075l12.1,-3.125l112.329,435.075l-12.1,3.125Z" style="fill:#515151;fill-rule:nonzero;"/><path d="M2546.11,2643.39l-112.333,-435.08l12.1,-3.125l112.334,435.08l-12.101,3.125Z" style="fill:#515151;fill-rule:nonzero;"/><path d="M2548.81,2329.68l-112.329,-435.075l12.104,-3.125l112.325,435.075l-12.1,3.125Z" style="fill:#515151;fill-rule:nonzero;"/><path d="M2389.36,2431.72l-65.604,-248.792l12.088,-3.187l65.6,248.795l-12.084,3.184Z" style="fill:#515151;fill-rule:nonzero;"/><path d="M4452.28,3843.08c-0,0 158.962,-365.762 350.129,-411.433c30.417,-7.263 59.417,16.875 57.417,48.066c-4.292,66.75 -61.292,201.138 -350.458,425.767l-57.088,-62.4Z" style="fill:url(#_Linear10);"/><path d="M4474.45,3868.15c2.625,-3.196 347.125,-407.575 347.125,-407.575c-73.625,103.717 -338.125,409.625 -340.792,412.825l-6.333,-5.25Z" style="fill:#fff;fill-rule:nonzero;"/><path d="M4396.45,3801.7c-0,0 38.62,-458.308 230.625,-578.791c30.541,-19.159 71.125,-3.492 80.458,31.329c19.958,74.512 7.333,242.366 -225.666,594.566l-85.417,-47.104Z" style="fill:url(#_Linear11);"/><path d="M4429.9,3820.92c1.712,-4.467 228.754,-573.463 228.754,-573.463c-42.125,140.492 -218.167,572.379 -219.879,576.846l-8.875,-3.383Z" style="fill:#fff;fill-rule:nonzero;"/><path d="M5126.82,3949.09c-0,-0 -112.292,-312.809 -388.959,-189.9c0,-0 -117.083,53.429 -245.083,-79.475c0,-0 -237.417,-305.78 -466.2,-204.25c0,-0 -111.742,42.775 -169.979,250.525c-0,-0 -292.863,-10.184 -329.759,224.154l1599.98,-1.054Z" style="fill:url(#_Linear12);"/><path d="M1005.37,3740.53c-0,0 -162.625,-364.146 -67.309,-536.033c15.159,-27.333 52.542,-32.446 74.209,-9.913c46.362,48.213 107.079,180.946 77.666,545.946l-84.566,0Z" style="fill:url(#_Linear13);"/><path d="M1038.82,3741.11c-0.584,-4.104 -66.488,-531.216 -66.488,-531.216c26.85,124.316 74.075,525.954 74.654,530.058l-8.166,1.158Z" style="fill:#fff;fill-rule:nonzero;"/><path d="M907.233,3809.61c0,0 -401.458,-369.737 -374.65,-637.379c4.259,-42.562 48.488,-69.217 87.913,-52.617c84.362,35.525 232.512,169.513 393.033,644.238l-106.296,45.758Z" style="fill:url(#_Linear14);"/><path d="M949.592,3792.23c-2.95,-4.841 -371.013,-631.766 -371.013,-631.766c101.021,141.737 377.7,621.05 380.65,625.895l-9.637,5.871Z" style="fill:#fff;fill-rule:nonzero;"/><path d="M380.612,3951.84c0,-0 137.321,-383.434 477.35,-233.034c0,0 143.863,65.392 300.8,-98.083c0,0 290.992,-376 572.167,-251.758c0,-0 137.321,52.312 209.254,307.337c0,0 359.646,-13.079 405.421,274.642l-1964.99,0.896Z" style="fill:url(#_Linear15);"/><path d="M1175.11,3950.95c0,-0 137.321,-333.492 359.646,-196.175c0,-0 91.55,104.629 196.171,13.083c0,0 189.638,-255.025 405.425,-163.479c215.788,91.546 294.258,346.571 294.258,346.571l-1255.5,-0Z" style="fill:url(#_Linear16);"/><path d="M1401.45,2725.95c-31.013,-0 -56.25,25.233 -56.25,56.25l-12.5,-0c-0,-37.908 30.841,-68.75 68.75,-68.75c37.908,-0 68.75,30.842 68.75,68.75l-12.5,-0c-0,-31.017 -25.238,-56.25 -56.25,-56.25Z" style="fill:url(#_Linear17);"/><path d="M715.879,1874.86l13.133,3.613c15.305,-17.484 39.755,-25.792 63.621,-19.225c33.225,9.141 52.825,43.612 43.679,76.841c-9.141,33.225 -43.616,52.821 -76.841,43.68c-22.246,-6.125 -38.325,-23.617 -43.817,-44.471l-13.546,-3.725c4.617,28.004 24.934,52.237 54.046,60.246c39.871,10.97 81.238,-12.542 92.213,-52.413c10.97,-39.875 -12.546,-81.241 -52.417,-92.212c-30.658,-8.434 -62.142,3.566 -80.071,27.666Z" style="fill:url(#_Linear18);"/><path d="M1239.89,864.489c-9.088,-7.35 -14.146,-18.192 -13.925,-29.942l0.15,-7.946c0.158,-8.241 -3.605,-15.842 -10.175,-20.675c-6.621,-4.9 -14.913,-6.246 -22.742,-3.683c-11.729,3.825 -24.596,1.662 -34.421,-5.788c-9.842,-7.466 -15.379,-19.258 -14.858,-31.579l0.341,-8.046c0.334,-7.766 -2.866,-15.116 -8.775,-20.166c-5.945,-5.105 -13.67,-7.067 -21.287,-5.534l-2.471,-12.25c11.413,-2.304 22.983,0.734 31.879,8.28c8.846,7.562 13.642,18.57 13.142,30.199l-0.342,8.051c-0.358,8.349 3.321,16.116 9.917,21.083c6.662,5.054 15.046,6.462 22.992,3.866c11.725,-3.829 24.141,-1.82 34.062,5.521c9.896,7.292 15.475,18.621 15.238,30.959l-0.15,7.945c-0.15,8.105 3.437,15.613 9.916,20.48c6.45,4.904 14.609,6.391 22.379,4.079l3.021,-0.904c11.538,-3.438 23.679,-1.267 33.313,5.954c9.654,7.196 15.121,18.262 15.062,30.304l-12.5,-0.067c0.038,-8.041 -3.625,-15.396 -10.058,-20.237c-6.429,-4.821 -14.542,-6.271 -22.242,-3.975l-3.025,0.904c-11.637,3.467 -23.85,1.242 -33.516,-6.108l-0.925,-0.725Z" style="fill:url(#_Linear19);"/><path d="M4284.78,780.114c-31,-0 -56.25,-25.234 -56.25,-56.25l-12.5,-0c0,37.908 30.842,68.75 68.75,68.75c37.917,-0 68.75,-30.842 68.75,-68.75l-12.5,-0c0,31.016 -25.25,56.25 -56.25,56.25Z" style="fill:url(#_Linear20);"/><path d="M4194.75,2916.03l126.908,0l-61.25,-100.666l-65.658,100.666Zm155.7,16.163l-185.542,-0l95.958,-147.137l89.584,147.137Z" style="fill:url(#_Linear21);"/><path d="M4762.86,1812.61c-10.749,4.566 -22.708,3.933 -32.958,-1.784l-6.958,-3.871c-7.208,-4.012 -15.667,-4.262 -23.042,-0.733c-7.417,3.542 -12.5,10.229 -13.916,18.342c-2.125,12.15 -10.084,22.491 -21.292,27.662c-11.209,5.175 -24.209,4.525 -34.875,-1.733l-6.917,-4.083c-6.708,-3.942 -14.708,-4.571 -21.917,-1.73c-7.333,2.846 -12.666,8.746 -14.916,16.192l-11.959,-3.583c3.334,-11.15 11.458,-19.942 22.292,-24.242c10.833,-4.254 22.792,-3.313 32.834,2.588l6.958,4.087c7.208,4.242 15.791,4.646 23.25,1.154c7.583,-3.504 12.791,-10.237 14.208,-18.471c2.125,-12.154 9.75,-22.162 20.875,-27.471c11.125,-5.308 23.75,-4.904 34.5,1.105l6.959,3.866c7.083,3.946 15.374,4.305 22.749,0.871c7.334,-3.387 12.5,-9.891 14.084,-17.837l0.625,-3.088c2.416,-11.8 10.041,-21.5 20.917,-26.608c10.916,-5.138 23.249,-4.763 33.833,0.95l-5.917,11.004c-7.083,-3.817 -15.292,-4.038 -22.583,-0.633c-7.292,3.408 -12.375,9.887 -14,17.762l-0.625,3.092c-2.375,11.9 -10.083,21.637 -21.125,26.716l-1.084,0.476Z" style="fill:url(#_Linear22);"/><path d="M1547.28,1932.2c0,-0 87.5,-16.667 108.333,-125c0,-0 22.917,106.25 110.417,122.917c0,-0 -95.833,37.5 -108.333,125c-0,-0 -20.834,-104.167 -110.417,-122.917Z" style="fill:url(#_Linear23);"/><path d="M1388.95,1822.54c-0,-0 69.166,-13.176 85.637,-98.809c0,0 18.113,83.988 87.279,97.163c0,-0 -75.754,29.641 -85.637,98.808c-0,-0 -16.467,-82.342 -87.279,-97.162Z" style="fill:url(#_Linear24);"/><path d="M1402.18,2045.33c0,0 58.871,-11.212 72.888,-84.1c-0,0 15.416,71.488 74.291,82.7c0,0 -64.479,25.233 -72.887,84.104c-0,0 -14.017,-70.083 -74.292,-82.704Z" style="fill:url(#_Linear25);"/><path d="M2597.28,894.697c0,-0 87.5,-16.667 108.333,-125c0,-0 22.917,106.25 110.417,122.917c0,-0 -95.833,37.5 -108.333,125c-0,-0 -20.834,-104.167 -110.417,-122.917Z" style="fill:url(#_Linear26);"/><path d="M2438.95,785.035c-0,-0 69.166,-13.176 85.637,-98.809c0,0 18.113,83.988 87.279,97.163c0,-0 -75.754,29.641 -85.637,98.808c-0,-0 -16.467,-82.342 -87.279,-97.162Z" style="fill:url(#_Linear27);"/><path d="M2452.18,1007.83c0,0 58.871,-11.212 72.888,-84.1c-0,0 15.416,71.488 74.291,82.7c0,0 -64.479,25.233 -72.887,84.104c-0,0 -14.017,-70.087 -74.292,-82.704Z" style="fill:url(#_Linear28);"/><path d="M3833.57,1220.15c-0,3.25 -142.459,16.209 -142.459,16.209l-8.583,-60l-7.541,-52.625l-0.084,-0.709c-200.75,51.792 -139.208,-158.666 -139.208,-158.666l-25.917,-22.667c0,0 45.333,-42.083 61.542,-71.25c16.167,-29.125 55.041,-84.167 55.041,-84.167l194.288,55.042l-9.746,200.75c0,-0 22.667,174.875 22.667,178.083Z" style="fill:#ffc0bf;fill-rule:nonzero;"/><path d="M3020.32,3459.07l-39.5,86.375l-23.209,50.792l-107.5,-39.917l28.25,-76.583l26.5,-71.792l115.459,51.125Z" style="fill:#ffc0bf;fill-rule:nonzero;"/><path d="M2955.81,3659.55l10.492,-79.579c-0,-0 -77.104,14.537 -108.658,-44.042l-220.825,41.233c-12.042,2.25 -12.692,19.267 -0.851,22.421l292.738,78.092c12.654,3.375 25.392,-5.142 27.104,-18.125Z" style="fill:url(#_Linear29);"/><path d="M3738.45,3278.95l-93.875,65.875l-16.296,-23.083l-74.829,-106.125l107.629,-66.084l36.579,61.209l40.792,68.208Z" style="fill:#ffc0bf;fill-rule:nonzero;"/><path d="M3020.32,3459.07l-39.5,86.375l-102.459,-65.708l26.5,-71.792l115.459,51.125Z" style="fill:#efa3b2;fill-rule:nonzero;"/><path d="M3697.65,3210.74l-69.379,111l-74.829,-106.125l107.629,-66.084l36.579,61.209Z" style="fill:#efa3b2;fill-rule:nonzero;"/><path d="M3789.54,3316.38l-59.584,-53.792c-0,0 -31.767,71.75 -97.908,64.5l-91.313,205.246c-4.983,11.196 8.667,21.384 17.984,13.421l230.37,-196.779c9.959,-8.504 10.171,-23.821 0.451,-32.596Z" style="fill:url(#_Linear30);"/><path d="M3363.78,2544.24l34.288,66.041l111.629,214.959l195.375,376.375l-175.5,160.625l-143.417,-219.834l-138.458,-212.25l-183.625,-281.416c-60.417,-56.417 -60.088,-152.25 0.662,-208.25l549.879,-481.75l419.334,94.458c-60.75,148.458 -670.167,491.042 -670.167,491.042Z" style="fill:url(#_Linear31);"/><path d="M3509.7,2825.24l-123.542,317.166l-138.458,-212.25l150.371,-319.875l111.629,214.959Z" style="fill:url(#_Linear32);"/><path d="M4046.45,1958.74c-0,-0 0.045,5.375 -1.25,15.833c-4.709,38.333 -27.375,145.292 -135.917,309.125c-10.75,16.208 -22.333,33 -34.875,50.375c-76.083,105.583 -186,231.542 -344.5,375.208l-434.833,827.084l-218.625,-60.834l418.296,-982.458l281.037,-428.417l18.75,-28.583l61.042,-93.042l293.5,11.792l97.375,3.917Z" style="fill:url(#_Linear33);"/><path d="M4046.45,1958.74c-0,-0 0.045,5.375 -1.25,15.833c-4.709,38.333 -27.375,145.292 -135.917,309.125c-10.75,16.208 -22.333,33 -34.875,50.375c-5.75,-199.083 -229.462,-256.454 -298.625,-269.417l18.75,-28.583l61.042,-93.042l293.5,11.792l97.375,3.917Z" style="fill:url(#_Linear34);"/><path d="M3645.11,1479.07l0,263.125l-32.916,-10.292l-75.042,-23.458l-16.125,-232.25l-0.292,-4l124.375,6.875Z" style="fill:#ffc0bf;fill-rule:nonzero;"/><path d="M3645.11,1479.07l0,263.125l-32.916,-10.292l-31.584,-203.875l-59.583,-51.833l-0.292,-4l124.375,6.875Z" style="fill:#efa3b2;fill-rule:nonzero;"/><path d="M4102.61,1505.4c-0.959,19.792 -2.209,42.5 -3.792,67.667c-8.834,139.792 -29.042,355.542 -74.542,574.708c-2.625,12.709 -17.5,18.5 -28,10.875c-40.75,-29.583 -109,-87.287 -253.375,-97.25c-128.542,-8.875 -172.667,-32.291 -187.746,-47.333c-5.837,-5.792 -6.754,-14.833 -2.504,-21.875c11,-18.125 47.375,-81.708 62.5,-144.625c4.958,-20.583 7.667,-41.083 6.459,-59.875c-0.084,-1.083 -0.042,-2.125 0.079,-3.208c0.462,-3.709 -0.121,-17.125 -1.371,-36.292c-4.834,-73.833 -19.75,-232.792 -23,-249.333c-0,-0 -75.042,-20.834 -76.625,-25.084l2.958,-115.625l0,-1.041c-0.25,-8.625 7.546,-129.709 158.542,-171.917c3.125,-0.875 14.295,38 52.583,34.5c45.833,-4.167 88.996,-62.5 91.667,-62.5c42.5,0.542 234.458,64.167 275,258.792c0.083,0.333 3.833,33.291 1.167,89.416Z" style="fill:url(#_Linear35);"/><path d="M3459.56,1584.45l323.875,141.696l0,26.987l-263.15,-26.987l-60.725,-141.696Z" style="fill:url(#_Linear36);"/><path d="M4102.61,1505.4c-0.959,19.792 -2.209,42.5 -3.792,67.667c-52.292,131.583 -156.375,375 -214.042,384.125c-38.875,6.125 -201.496,-75.5 -269.625,-109.625c4.958,-20.583 7.667,-41.083 6.459,-59.875c-0.084,-1.083 -0.042,-2.125 0.079,-3.208c0.462,-3.709 -0.121,-17.125 -1.371,-36.292l226.958,59l150,-245.833l105.334,-55.959Z" style="fill:url(#_Linear37);"/><path d="M3783.44,1753.13l-242.904,-6.745l-20.246,-40.484l263.15,20.242l0,26.987Z" style="fill:url(#_Linear38);"/><path d="M3003.79,1207.4l453.996,147.242c13.509,4.383 23.417,15.983 25.633,30.012l57.117,361.734l-407.379,-135.792c-11.146,-3.717 -19.896,-12.467 -23.617,-23.617l-121.3,-363.904c-3.204,-9.625 5.896,-18.804 15.55,-15.675Z" style="fill:url(#_Linear39);"/><path d="M4041.82,1640.95l-38.954,68.333l-95.755,167.917c-6.912,15.583 -24.829,23.083 -40.787,17.083l-349.417,-131.041l-80.958,-12.167l-107.959,-53.958l-20.25,-28.334l232.792,69.167l293.5,11.792l55.083,-171.334l4.254,-18.416l148.451,80.958Z" style="fill:#ffc0bf;fill-rule:nonzero;"/><path d="M4041.82,1640.95l-38.954,68.333l-113.751,-130.875l4.254,-18.416l148.451,80.958Z" style="fill:#efa3b2;fill-rule:nonzero;"/><path d="M3272.3,1435.29c8.342,20.775 2.471,42.692 -13.117,48.95c-15.583,6.254 -34.979,-5.517 -43.321,-26.296c-8.341,-20.779 -2.47,-42.696 13.113,-48.954c15.588,-6.254 34.983,5.516 43.325,26.3Z" style="fill:url(#_Linear40);"/><path d="M3942.9,1362.48l-56.213,211.625l158.113,81.084l42.1,-105.421c-0,-0 43.05,-124.75 -5.609,-194.596c-11.795,-16.929 -21.516,-38.038 -49.912,-45.546c-38.708,-10.238 -78.2,14.154 -88.479,52.854Z" style="fill:url(#_Linear41);"/><path d="M3896.73,885.03c0,0 3.842,-44.516 -45.496,-105.504c-33.837,-41.829 -179.554,-148.687 -250.791,-22.404c-61.075,108.275 94.442,149.9 140.045,159.571l-23.474,57.383l29.141,9.717c0,-0 71.954,-39.096 59.454,27.571c-3.166,16.883 -8.333,25.858 -27.762,48.525l36.096,18.141c-0,0 157.262,-66.716 82.787,-193Z" style="fill:url(#_Linear42);"/><path d="M3747.28,1098.86c-5.208,28.583 -39.583,58.833 -64.75,77.5l-7.541,-52.625c34.003,-10 72.291,-24.875 72.291,-24.875Z" style="fill:#efa3b2;fill-rule:nonzero;"/></g><defs><linearGradient id="_Linear1" x1="0" y1="0" x2="1" y2="0" gradientUnits="userSpaceOnUse" gradientTransform="matrix(-269.967,-363.751,363.751,-269.967,2650.14,1897.83)"><stop offset="0" style="stop-color:#8990f9;stop-opacity:1"/><stop offset="1" style="stop-color:#9cddff;stop-opacity:1"/></linearGradient><linearGradient id="_Linear2" x1="0" y1="0" x2="1" y2="0" gradientUnits="userSpaceOnUse" gradientTransform="matrix(235.377,1229.79,-1229.79,235.377,2103.31,757.447)"><stop offset="0" style="stop-color:#f9645b;stop-opacity:1"/><stop offset="1" style="stop-color:#ffbf89;stop-opacity:1"/></linearGradient><linearGradient id="_Linear3" x1="0" y1="0" x2="1" y2="0" gradientUnits="userSpaceOnUse" gradientTransform="matrix(15.9241,-427.079,427.079,15.9241,2012.57,2043.66)"><stop offset="0" style="stop-color:#8990f9;stop-opacity:1"/><stop offset="1" style="stop-color:#9cddff;stop-opacity:1"/></linearGradient><linearGradient id="_Linear4" x1="0" y1="0" x2="1" y2="0" gradientUnits="userSpaceOnUse" gradientTransform="matrix(-22.3541,-599.446,599.446,-22.3541,2321.83,2100.02)"><stop offset="0" style="stop-color:#2a233b;stop-opacity:1"/><stop offset="1" style="stop-color:#625b70;stop-opacity:1"/></linearGradient><linearGradient id="_Linear5" x1="0" y1="0" x2="1" y2="0" gradientUnits="userSpaceOnUse" gradientTransform="matrix(336.323,687.475,-687.475,336.323,1748.15,623.634)"><stop offset="0" style="stop-color:#dd4b46;stop-opacity:1"/><stop offset="1" style="stop-color:#ffbf89;stop-opacity:1"/></linearGradient><linearGradient id="_Linear6" x1="0" y1="0" x2="1" y2="0" gradientUnits="userSpaceOnUse" gradientTransform="matrix(-181.581,-192.288,192.288,-181.581,2243.96,1795.77)"><stop offset="0" style="stop-color:#2a233b;stop-opacity:1"/><stop offset="1" style="stop-color:#625b70;stop-opacity:1"/></linearGradient><linearGradient id="_Linear7" x1="0" y1="0" x2="1" y2="0" gradientUnits="userSpaceOnUse" gradientTransform="matrix(262.765,-73.8246,73.8246,262.765,1918.88,1061.93)"><stop offset="0" style="stop-color:#2a233b;stop-opacity:1"/><stop offset="1" style="stop-color:#625b70;stop-opacity:1"/></linearGradient><linearGradient id="_Linear8" x1="0" y1="0" x2="1" y2="0" gradientUnits="userSpaceOnUse" gradientTransform="matrix(171.24,-48.1104,48.1104,171.24,1964.64,1049.07)"><stop offset="0" style="stop-color:#8990f9;stop-opacity:1"/><stop offset="1" style="stop-color:#9cddff;stop-opacity:1"/></linearGradient><linearGradient id="_Linear9" x1="0" y1="0" x2="1" y2="0" gradientUnits="userSpaceOnUse" gradientTransform="matrix(15.502,-415.757,415.757,15.502,2237.72,1971.56)"><stop offset="0" style="stop-color:#8990f9;stop-opacity:1"/><stop offset="1" style="stop-color:#9cddff;stop-opacity:1"/></linearGradient><linearGradient id="_Linear10" x1="0" y1="0" x2="1" y2="0" gradientUnits="userSpaceOnUse" gradientTransform="matrix(-249.617,318.867,-318.867,-249.617,4744.15,3550.98)"><stop offset="0" style="stop-color:#aa52ff;stop-opacity:1"/><stop offset="1" style="stop-color:#cf87ff;stop-opacity:1"/></linearGradient><linearGradient id="_Linear11" x1="0" y1="0" x2="1" y2="0" gradientUnits="userSpaceOnUse" gradientTransform="matrix(184.153,-429.05,429.05,184.153,4442.15,3776.98)"><stop offset="0" style="stop-color:#64d6fd;stop-opacity:1"/><stop offset="1" style="stop-color:#6477ff;stop-opacity:1"/></linearGradient><linearGradient id="_Linear12" x1="0" y1="0" x2="1" y2="0" gradientUnits="userSpaceOnUse" gradientTransform="matrix(-1600,-2.55735,-2.55735,1600,5126.45,3701.15)"><stop offset="0" style="stop-color:#28046b;stop-opacity:1"/><stop offset="1" style="stop-color:#6b93f4;stop-opacity:1"/></linearGradient><linearGradient id="_Linear13" x1="0" y1="0" x2="1" y2="0" gradientUnits="userSpaceOnUse" gradientTransform="matrix(66.8312,399.397,-399.397,66.8312,986.804,3328.03)"><stop offset="0" style="stop-color:#aa52ff;stop-opacity:1"/><stop offset="1" style="stop-color:#cf87ff;stop-opacity:1"/></linearGradient><linearGradient id="_Linear14" x1="0" y1="0" x2="1" y2="0" gradientUnits="userSpaceOnUse" gradientTransform="matrix(-268.122,-484.854,484.854,-268.122,917.321,3748.78)"><stop offset="0" style="stop-color:#64d6fd;stop-opacity:1"/><stop offset="1" style="stop-color:#6477ff;stop-opacity:1"/></linearGradient><linearGradient id="_Linear15" x1="0" y1="0" x2="1" y2="0" gradientUnits="userSpaceOnUse" gradientTransform="matrix(-1475.15,-3.09387e-11,3.09387e-11,-1475.15,1967.83,3647.82)"><stop offset="0" style="stop-color:#28046b;stop-opacity:1"/><stop offset="1" style="stop-color:#6b93f4;stop-opacity:1"/></linearGradient><linearGradient id="_Linear16" x1="0" y1="0" x2="1" y2="0" gradientUnits="userSpaceOnUse" gradientTransform="matrix(1255.5,0,0,1255.5,1175.11,3767.74)"><stop offset="0" style="stop-color:#64d6fd;stop-opacity:1"/><stop offset="1" style="stop-color:#6477ff;stop-opacity:1"/></linearGradient><linearGradient id="_Linear17" x1="0" y1="0" x2="1" y2="0" gradientUnits="userSpaceOnUse" gradientTransform="matrix(137.5,0,0,-137.5,1332.7,2747.82)"><stop offset="0" style="stop-color:#f9645b;stop-opacity:1"/><stop offset="1" style="stop-color:#ffbf89;stop-opacity:1"/></linearGradient><linearGradient id="_Linear18" x1="0" y1="0" x2="1" y2="0" gradientUnits="userSpaceOnUse" gradientTransform="matrix(39.7956,-144.625,144.625,39.7956,758.633,1992.5)"><stop offset="0" style="stop-color:#c680e6;stop-opacity:1"/><stop offset="1" style="stop-color:#7056e4;stop-opacity:1"/></linearGradient><linearGradient id="_Linear19" x1="0" y1="0" x2="1" y2="0" gradientUnits="userSpaceOnUse" gradientTransform="matrix(213.188,172.405,-172.405,213.188,1105.75,726.272)"><stop offset="0" style="stop-color:#8990f9;stop-opacity:1"/><stop offset="1" style="stop-color:#9cddff;stop-opacity:1"/></linearGradient><linearGradient id="_Linear20" x1="0" y1="0" x2="1" y2="0" gradientUnits="userSpaceOnUse" gradientTransform="matrix(137.5,0,0,137.5,4216.03,758.239)"><stop offset="0" style="stop-color:#64d6fd;stop-opacity:1"/><stop offset="1" style="stop-color:#6477ff;stop-opacity:1"/></linearGradient><linearGradient id="_Linear21" x1="0" y1="0" x2="1" y2="0" gradientUnits="userSpaceOnUse" gradientTransform="matrix(185.52,0,0,185.52,4164.91,2858.63)"><stop offset="0" style="stop-color:#c680e6;stop-opacity:1"/><stop offset="1" style="stop-color:#7056e4;stop-opacity:1"/></linearGradient><linearGradient id="_Linear22" x1="0" y1="0" x2="1" y2="0" gradientUnits="userSpaceOnUse" gradientTransform="matrix(252.377,-107.137,107.137,252.377,4577.82,1866.04)"><stop offset="0" style="stop-color:#f9645b;stop-opacity:1"/><stop offset="1" style="stop-color:#ffbf89;stop-opacity:1"/></linearGradient><linearGradient id="_Linear23" x1="0" y1="0" x2="1" y2="0" gradientUnits="userSpaceOnUse" gradientTransform="matrix(218.75,0,0,218.75,1547.28,1931.16)"><stop offset="0" style="stop-color:#f9645b;stop-opacity:1"/><stop offset="1" style="stop-color:#ffbf89;stop-opacity:1"/></linearGradient><linearGradient id="_Linear24" x1="0" y1="0" x2="1" y2="0" gradientUnits="userSpaceOnUse" gradientTransform="matrix(172.917,0,0,172.917,1388.95,1821.71)"><stop offset="0" style="stop-color:#f9645b;stop-opacity:1"/><stop offset="1" style="stop-color:#ffbf89;stop-opacity:1"/></linearGradient><linearGradient id="_Linear25" x1="0" y1="0" x2="1" y2="0" gradientUnits="userSpaceOnUse" gradientTransform="matrix(147.181,0,0,147.181,1402.18,2044.63)"><stop offset="0" style="stop-color:#f9645b;stop-opacity:1"/><stop offset="1" style="stop-color:#ffbf89;stop-opacity:1"/></linearGradient><linearGradient id="_Linear26" x1="0" y1="0" x2="1" y2="0" gradientUnits="userSpaceOnUse" gradientTransform="matrix(218.75,0,0,218.75,2597.28,893.655)"><stop offset="0" style="stop-color:#64d6fd;stop-opacity:1"/><stop offset="1" style="stop-color:#6477ff;stop-opacity:1"/></linearGradient><linearGradient id="_Linear27" x1="0" y1="0" x2="1" y2="0" gradientUnits="userSpaceOnUse" gradientTransform="matrix(172.917,0,0,172.917,2438.95,784.209)"><stop offset="0" style="stop-color:#64d6fd;stop-opacity:1"/><stop offset="1" style="stop-color:#6477ff;stop-opacity:1"/></linearGradient><linearGradient id="_Linear28" x1="0" y1="0" x2="1" y2="0" gradientUnits="userSpaceOnUse" gradientTransform="matrix(147.181,0,0,147.181,2452.18,1007.13)"><stop offset="0" style="stop-color:#64d6fd;stop-opacity:1"/><stop offset="1" style="stop-color:#6477ff;stop-opacity:1"/></linearGradient><linearGradient id="_Linear29" x1="0" y1="0" x2="1" y2="0" gradientUnits="userSpaceOnUse" gradientTransform="matrix(-53.7296,176.515,176.515,53.7296,2834.78,3709.69)"><stop offset="0" style="stop-color:#2a233b;stop-opacity:1"/><stop offset="1" style="stop-color:#625b70;stop-opacity:1"/></linearGradient><linearGradient id="_Linear30" x1="0" y1="0" x2="1" y2="0" gradientUnits="userSpaceOnUse" gradientTransform="matrix(-175.844,55.8854,55.8854,175.844,3762.17,3444.48)"><stop offset="0" style="stop-color:#2a233b;stop-opacity:1"/><stop offset="1" style="stop-color:#625b70;stop-opacity:1"/></linearGradient><linearGradient id="_Linear31" x1="0" y1="0" x2="1" y2="0" gradientUnits="userSpaceOnUse" gradientTransform="matrix(146.931,1172.03,-1172.03,146.931,3531.16,2341.08)"><stop offset="0" style="stop-color:#2a233b;stop-opacity:1"/><stop offset="1" style="stop-color:#625b70;stop-opacity:1"/></linearGradient><linearGradient id="_Linear32" x1="0" y1="0" x2="1" y2="0" gradientUnits="userSpaceOnUse" gradientTransform="matrix(-179.167,-212.5,212.5,-179.167,3451.1,2946.3)"><stop offset="0" style="stop-color:#2a233b;stop-opacity:1"/><stop offset="1" style="stop-color:#625b70;stop-opacity:1"/></linearGradient><linearGradient id="_Linear33" x1="0" y1="0" x2="1" y2="0" gradientUnits="userSpaceOnUse" gradientTransform="matrix(830.321,-1359.95,1359.95,830.321,2952.49,3453.11)"><stop offset="0" style="stop-color:#2a233b;stop-opacity:1"/><stop offset="1" style="stop-color:#625b70;stop-opacity:1"/></linearGradient><linearGradient id="_Linear34" x1="0" y1="0" x2="1" y2="0" gradientUnits="userSpaceOnUse" gradientTransform="matrix(-267.002,334.557,-334.557,-267.002,3956.07,1899.13)"><stop offset="0" style="stop-color:#2a233b;stop-opacity:1"/><stop offset="1" style="stop-color:#625b70;stop-opacity:1"/></linearGradient><linearGradient id="_Linear35" x1="0" y1="0" x2="1" y2="0" gradientUnits="userSpaceOnUse" gradientTransform="matrix(193.14,881.204,-881.204,193.14,3716.64,1212.01)"><stop offset="0" style="stop-color:#64d6fd;stop-opacity:1"/><stop offset="1" style="stop-color:#6477ff;stop-opacity:1"/></linearGradient><linearGradient id="_Linear36" x1="0" y1="0" x2="1" y2="0" gradientUnits="userSpaceOnUse" gradientTransform="matrix(323.876,0,0,323.876,3459.56,1668.79)"><stop offset="0" style="stop-color:#2a233b;stop-opacity:1"/><stop offset="1" style="stop-color:#625b70;stop-opacity:1"/></linearGradient><linearGradient id="_Linear37" x1="0" y1="0" x2="1" y2="0" gradientUnits="userSpaceOnUse" gradientTransform="matrix(-145.963,455.504,-455.504,-145.963,3997.02,1231.69)"><stop offset="0" style="stop-color:#64d6fd;stop-opacity:1"/><stop offset="1" style="stop-color:#6477ff;stop-opacity:1"/></linearGradient><linearGradient id="_Linear38" x1="0" y1="0" x2="1" y2="0" gradientUnits="userSpaceOnUse" gradientTransform="matrix(263.149,0,0,263.149,3611.51,1729.52)"><stop offset="0" style="stop-color:#2a233b;stop-opacity:1"/><stop offset="1" style="stop-color:#625b70;stop-opacity:1"/></linearGradient><linearGradient id="_Linear39" x1="0" y1="0" x2="1" y2="0" gradientUnits="userSpaceOnUse" gradientTransform="matrix(552.95,0,0,552.95,2987.58,1476.58)"><stop offset="0" style="stop-color:#2a233b;stop-opacity:1"/><stop offset="1" style="stop-color:#625b70;stop-opacity:1"/></linearGradient><linearGradient id="_Linear40" x1="0" y1="0" x2="1" y2="0" gradientUnits="userSpaceOnUse" gradientTransform="matrix(56.4367,-22.6552,22.6552,56.4367,3215.86,1457.95)"><stop offset="0" style="stop-color:#d6c3eb;stop-opacity:1"/><stop offset="1" style="stop-color:#efeff2;stop-opacity:1"/></linearGradient><linearGradient id="_Linear41" x1="0" y1="0" x2="1" y2="0" gradientUnits="userSpaceOnUse" gradientTransform="matrix(-61.5058,355.366,-355.366,-61.5058,4036.31,1286.43)"><stop offset="0" style="stop-color:#64d6fd;stop-opacity:1"/><stop offset="1" style="stop-color:#6477ff;stop-opacity:1"/></linearGradient><linearGradient id="_Linear42" x1="0" y1="0" x2="1" y2="0" gradientUnits="userSpaceOnUse" gradientTransform="matrix(330.33,0,0,330.33,3586.42,887.726)"><stop offset="0" style="stop-color:#2a233b;stop-opacity:1"/><stop offset="1" style="stop-color:#625b70;stop-opacity:1"/></linearGradient></defs></svg>